<?xml version="1.0" encoding="UTF-8" standalone="no"?>
<!DOCTYPE svg PUBLIC "-//W3C//DTD SVG 1.1//EN"
 "http://www.w3.org/Graphics/SVG/1.1/DTD/svg11.dtd">
<!-- Generated by graphviz version 2.38.0 (20140413.2041)
 -->
<!-- Title: models_diagram Pages: 1 -->
<svg width="396pt" height="744pt"
 viewBox="0.00 0.00 396.01 744.00" xmlns="http://www.w3.org/2000/svg" xmlns:xlink="http://www.w3.org/1999/xlink">
<g id="graph0" class="graph" transform="scale(1 1) rotate(0) translate(4 740)">
<title>models_diagram</title>
<polygon fill="white" stroke="none" points="-4,4 -4,-740 392.009,-740 392.009,4 -4,4"/>
<!-- _diagram_info -->
<g id="node1" class="node"><title>_diagram_info</title>
<text text-anchor="start" x="8" y="-721.6" font-family="Times,serif" font-size="13.00">Models diagram</text>
<text text-anchor="start" x="8" y="-708.6" font-family="Times,serif" font-size="13.00">Date: Jun 27 2014 &#45; 12:46</text>
<text text-anchor="start" x="8" y="-695.6" font-family="Times,serif" font-size="13.00">Migration version: 20140627172619</text>
<text text-anchor="start" x="8" y="-682.6" font-family="Times,serif" font-size="13.00">Generated by RailRoady 1.1.1</text>
<text text-anchor="start" x="8" y="-669.6" font-family="Times,serif" font-size="13.00">http://railroady.prestonlee.com</text>
</g>
<!-- Event -->
<g id="node2" class="node"><title>Event</title>
<path fill="none" stroke="black" d="M126.017,-303.5C126.017,-303.5 251.359,-303.5 251.359,-303.5 257.359,-303.5 263.359,-309.5 263.359,-315.5 263.359,-315.5 263.359,-447.5 263.359,-447.5 263.359,-453.5 257.359,-459.5 251.359,-459.5 251.359,-459.5 126.017,-459.5 126.017,-459.5 120.017,-459.5 114.017,-453.5 114.017,-447.5 114.017,-447.5 114.017,-315.5 114.017,-315.5 114.017,-309.5 120.017,-303.5 126.017,-303.5"/>
<text text-anchor="middle" x="188.688" y="-444.3" font-family="Times,serif" font-size="14.00">Event</text>
<polyline fill="none" stroke="black" points="114.017,-437.5 263.359,-437.5 "/>
<text text-anchor="start" x="122.017" y="-422.3" font-family="Times,serif" font-size="14.00">id :integer</text>
<text text-anchor="start" x="122.017" y="-408.3" font-family="Times,serif" font-size="14.00">location :string</text>
<text text-anchor="start" x="122.017" y="-394.3" font-family="Times,serif" font-size="14.00">date :date</text>
<text text-anchor="start" x="122.017" y="-380.3" font-family="Times,serif" font-size="14.00">created_at :datetime</text>
<text text-anchor="start" x="122.017" y="-366.3" font-family="Times,serif" font-size="14.00">updated_at :datetime</text>
<text text-anchor="start" x="122.017" y="-352.3" font-family="Times,serif" font-size="14.00">creator_id :integer</text>
<text text-anchor="start" x="122.017" y="-338.3" font-family="Times,serif" font-size="14.00">description :text</text>
<text text-anchor="start" x="122.017" y="-324.3" font-family="Times,serif" font-size="14.00">title :string</text>
<text text-anchor="start" x="122.017" y="-310.3" font-family="Times,serif" font-size="14.00">event_series_id :integer</text>
</g>
<!-- Invite -->
<g id="node4" class="node"><title>Invite</title>
<path fill="none" stroke="black" d="M135.244,-0.5C135.244,-0.5 276.131,-0.5 276.131,-0.5 282.131,-0.5 288.131,-6.5 288.131,-12.5 288.131,-12.5 288.131,-88.5 288.131,-88.5 288.131,-94.5 282.131,-100.5 276.131,-100.5 276.131,-100.5 135.244,-100.5 135.244,-100.5 129.244,-100.5 123.244,-94.5 123.244,-88.5 123.244,-88.5 123.244,-12.5 123.244,-12.5 123.244,-6.5 129.244,-0.5 135.244,-0.5"/>
<text text-anchor="middle" x="205.688" y="-85.3" font-family="Times,serif" font-size="14.00">Invite</text>
<polyline fill="none" stroke="black" points="123.244,-78.5 288.131,-78.5 "/>
<text text-anchor="start" x="131.244" y="-63.3" font-family="Times,serif" font-size="14.00">id :integer</text>
<text text-anchor="start" x="131.244" y="-49.3" font-family="Times,serif" font-size="14.00">attendee_id :integer</text>
<text text-anchor="start" x="131.244" y="-35.3" font-family="Times,serif" font-size="14.00">attended_event_id :integer</text>
<text text-anchor="start" x="131.244" y="-21.3" font-family="Times,serif" font-size="14.00">created_at :datetime</text>
<text text-anchor="start" x="131.244" y="-7.3" font-family="Times,serif" font-size="14.00">updated_at :datetime</text>
</g>
<!-- Event&#45;&gt;Invite -->
<g id="edge1" class="edge"><title>Event&#45;&gt;Invite</title>
<path fill="none" stroke="#2b5292" d="M118.151,-296.06C116.477,-292.418 114.976,-288.726 113.688,-285 111.655,-279.119 113.501,-277.219 113.688,-271 115.466,-211.809 97.7896,-192.182 121.688,-138 126.261,-127.631 132.658,-117.778 139.901,-108.688"/>
<ellipse fill="none" stroke="#2b5292" cx="120.044" cy="-299.878" rx="4.00002" ry="4.00002"/>
<polygon fill="#2b5292" stroke="#2b5292" points="140.017,-108.55 149.901,-103.801 143.238,-104.726 146.46,-100.902 146.46,-100.902 146.46,-100.902 143.238,-104.726 143.018,-98.0031 140.017,-108.55 140.017,-108.55"/>
</g>
<!-- User -->
<g id="node5" class="node"><title>User</title>
<path fill="none" stroke="black" d="M142.624,-138.5C142.624,-138.5 268.752,-138.5 268.752,-138.5 274.752,-138.5 280.752,-144.5 280.752,-150.5 280.752,-150.5 280.752,-240.5 280.752,-240.5 280.752,-246.5 274.752,-252.5 268.752,-252.5 268.752,-252.5 142.624,-252.5 142.624,-252.5 136.624,-252.5 130.624,-246.5 130.624,-240.5 130.624,-240.5 130.624,-150.5 130.624,-150.5 130.624,-144.5 136.624,-138.5 142.624,-138.5"/>
<text text-anchor="middle" x="205.688" y="-237.3" font-family="Times,serif" font-size="14.00">User</text>
<polyline fill="none" stroke="black" points="130.624,-230.5 280.752,-230.5 "/>
<text text-anchor="start" x="138.624" y="-215.3" font-family="Times,serif" font-size="14.00">id :integer</text>
<text text-anchor="start" x="138.624" y="-201.3" font-family="Times,serif" font-size="14.00">name :string</text>
<text text-anchor="start" x="138.624" y="-187.3" font-family="Times,serif" font-size="14.00">email :string</text>
<text text-anchor="start" x="138.624" y="-173.3" font-family="Times,serif" font-size="14.00">created_at :datetime</text>
<text text-anchor="start" x="138.624" y="-159.3" font-family="Times,serif" font-size="14.00">updated_at :datetime</text>
<text text-anchor="start" x="138.624" y="-145.3" font-family="Times,serif" font-size="14.00">remember_token :string</text>
</g>
<!-- Event&#45;&gt;User -->
<g id="edge2" class="edge"><title>Event&#45;&gt;User</title>
<path fill="none" stroke="#07ac13" d="M117.962,-293.625C117.222,-286.096 118.233,-278.492 121.605,-271 123.135,-267.599 124.907,-264.29 126.874,-261.078"/>
<polygon fill="#07ac13" stroke="#07ac13" points="117.967,-293.65 115.477,-304.329 118.93,-298.556 119.893,-303.463 119.893,-303.463 119.893,-303.463 118.93,-298.556 124.309,-302.596 117.967,-293.65 117.967,-293.65"/>
<polygon fill="#07ac13" stroke="#07ac13" points="126.878,-261.072 136.228,-255.343 129.694,-256.941 132.509,-252.809 132.509,-252.809 132.509,-252.809 129.694,-256.941 128.791,-250.275 126.878,-261.072 126.878,-261.072"/>
<text text-anchor="middle" x="146.729" y="-273.8" font-family="Times,serif" font-size="14.00">attendees</text>
</g>
<!-- EventSeries -->
<g id="node3" class="node"><title>EventSeries</title>
<path fill="none" stroke="black" d="M137.182,-497.5C137.182,-497.5 246.193,-497.5 246.193,-497.5 252.193,-497.5 258.193,-503.5 258.193,-509.5 258.193,-509.5 258.193,-613.5 258.193,-613.5 258.193,-619.5 252.193,-625.5 246.193,-625.5 246.193,-625.5 137.182,-625.5 137.182,-625.5 131.182,-625.5 125.182,-619.5 125.182,-613.5 125.182,-613.5 125.182,-509.5 125.182,-509.5 125.182,-503.5 131.182,-497.5 137.182,-497.5"/>
<text text-anchor="middle" x="191.688" y="-610.3" font-family="Times,serif" font-size="14.00">EventSeries</text>
<polyline fill="none" stroke="black" points="125.182,-603.5 258.193,-603.5 "/>
<text text-anchor="start" x="133.182" y="-588.3" font-family="Times,serif" font-size="14.00">id :integer</text>
<text text-anchor="start" x="133.182" y="-574.3" font-family="Times,serif" font-size="14.00">time_period :string</text>
<text text-anchor="start" x="133.182" y="-560.3" font-family="Times,serif" font-size="14.00">frequency :integer</text>
<text text-anchor="start" x="133.182" y="-546.3" font-family="Times,serif" font-size="14.00">created_at :datetime</text>
<text text-anchor="start" x="133.182" y="-532.3" font-family="Times,serif" font-size="14.00">updated_at :datetime</text>
<text text-anchor="start" x="133.182" y="-518.3" font-family="Times,serif" font-size="14.00">starttime :datetime</text>
<text text-anchor="start" x="133.182" y="-504.3" font-family="Times,serif" font-size="14.00">endtime :datetime</text>
</g>
<!-- EventSeries&#45;&gt;Event -->
<g id="edge4" class="edge"><title>EventSeries&#45;&gt;Event</title>
<path fill="none" stroke="#388773" d="M190.489,-489.395C190.382,-483.004 190.272,-476.485 190.162,-469.977"/>
<ellipse fill="none" stroke="#388773" cx="190.558" cy="-493.494" rx="4" ry="4"/>
<polygon fill="#388773" stroke="#388773" points="190.159,-469.778 194.49,-459.704 190.075,-464.779 189.99,-459.78 189.99,-459.78 189.99,-459.78 190.075,-464.779 185.491,-459.856 190.159,-469.778 190.159,-469.778"/>
</g>
<!-- User&#45;&gt;Event -->
<g id="edge7" class="edge"><title>User&#45;&gt;Event</title>
<path fill="none" stroke="#cc149b" d="M199.772,-260.526C198.796,-271.097 197.769,-282.213 196.75,-293.237"/>
<ellipse fill="none" stroke="#cc149b" cx="200.14" cy="-256.543" rx="4" ry="4"/>
<polygon fill="#cc149b" stroke="#cc149b" points="196.743,-293.31 191.342,-302.853 196.283,-298.288 195.823,-303.267 195.823,-303.267 195.823,-303.267 196.283,-298.288 200.304,-303.681 196.743,-293.31 196.743,-293.31"/>
</g>
<!-- User&#45;&gt;Event -->
<g id="edge9" class="edge"><title>User&#45;&gt;Event</title>
<path fill="none" stroke="#05ee17" d="M200.624,-262.842C199.999,-270.319 199.347,-277.825 198.688,-285 198.439,-287.708 198.181,-290.459 197.917,-293.235"/>
<polygon fill="#05ee17" stroke="#05ee17" points="200.639,-262.665 205.944,-253.068 201.049,-257.682 201.459,-252.699 201.459,-252.699 201.459,-252.699 201.049,-257.682 196.974,-252.33 200.639,-262.665 200.639,-262.665"/>
<polygon fill="#05ee17" stroke="#05ee17" points="197.899,-293.422 192.454,-302.941 197.416,-298.399 196.933,-303.375 196.933,-303.375 196.933,-303.375 197.416,-298.399 201.412,-303.81 197.899,-293.422 197.899,-293.422"/>
<text text-anchor="middle" x="244.781" y="-273.8" font-family="Times,serif" font-size="14.00">attended_events</text>
</g>
<!-- User&#45;&gt;Invite -->
<g id="edge8" class="edge"><title>User&#45;&gt;Invite</title>
<path fill="none" stroke="#9270d6" d="M205.688,-130.204C205.688,-123.913 205.688,-117.547 205.688,-111.303"/>
<ellipse fill="none" stroke="#9270d6" cx="205.688" cy="-134.393" rx="4" ry="4"/>
<polygon fill="#9270d6" stroke="#9270d6" points="205.688,-110.946 210.188,-100.946 205.688,-105.946 205.688,-100.946 205.688,-100.946 205.688,-100.946 205.688,-105.946 201.188,-100.946 205.688,-110.946 205.688,-110.946"/>
</g>
<!-- ActiveRecord::Base -->
<g id="node6" class="node"><title>ActiveRecord::Base</title>
<ellipse fill="none" stroke="black" cx="306.688" cy="-699.5" rx="81.1422" ry="18"/>
<text text-anchor="middle" x="306.688" y="-695.3" font-family="Times,serif" font-size="14.00">ActiveRecord::Base</text>
</g>
<!-- ActiveRecord::Base&#45;&gt;Event -->
<g id="edge3" class="edge"><title>ActiveRecord::Base&#45;&gt;Event</title>
<path fill="none" stroke="black" d="M305.74,-681.367C303.267,-645.727 294.797,-561.556 267.688,-497 262.405,-484.419 255.605,-471.814 248.217,-459.809"/>
</g>
<!-- ActiveRecord::Base&#45;&gt;EventSeries -->
<g id="edge5" class="edge"><title>ActiveRecord::Base&#45;&gt;EventSeries</title>
<path fill="none" stroke="black" d="M292.355,-681.55C280.374,-667.381 262.498,-646.241 245.121,-625.69"/>
</g>
<!-- ActiveRecord::Base&#45;&gt;Invite -->
<g id="edge6" class="edge"><title>ActiveRecord::Base&#45;&gt;Invite</title>
<path fill="none" stroke="black" d="M319.056,-681.428C335.82,-656.558 363.688,-608.326 363.688,-562.5 363.688,-562.5 363.688,-562.5 363.688,-194.5 363.688,-148.624 326.618,-113.639 288.39,-89.7591"/>
</g>
<!-- ActiveRecord::Base&#45;&gt;User -->
<g id="edge10" class="edge"><title>ActiveRecord::Base&#45;&gt;User</title>
<path fill="none" stroke="black" d="M310.934,-681.405C324.932,-621.244 364.804,-415.172 293.688,-271 290.323,-264.178 286.018,-257.74 281.126,-251.722"/>
</g>
</g>
</svg>
